<?xml version="1.0" encoding="UTF-8" standalone="no"?>
<svg
   xmlns:dc="http://purl.org/dc/elements/1.1/"
   xmlns:cc="http://creativecommons.org/ns#"
   xmlns:rdf="http://www.w3.org/1999/02/22-rdf-syntax-ns#"
   xmlns:svg="http://www.w3.org/2000/svg"
   xmlns="http://www.w3.org/2000/svg"
   xml:space="preserve"
   style="enable-background:new 0 0 512 512;"
   viewBox="0 0 512 512"
   height="512px"
   width="512px"
   y="0px"
   x="0px"
   id="Layer_1"
   version="1.1"><metadata
     id="metadata9"><rdf:RDF><cc:Work
         rdf:about=""><dc:format>image/svg+xml</dc:format><dc:type
           rdf:resource="http://purl.org/dc/dcmitype/StillImage" /><dc:title></dc:title></cc:Work></rdf:RDF></metadata><defs
     id="defs7" /><path
     style="fill:#ff5c00;fill-opacity:1"
     id="path3"
     d="M445,386.7l-84.8-85.9c13.8-24.1,21-50.9,21-77.9c0-87.6-71.2-158.9-158.6-158.9C135.2,64,64,135.3,64,222.9  c0,87.6,71.2,158.9,158.6,158.9c27.9,0,55.5-7.7,80.1-22.4l84.4,85.6c1.9,1.9,4.6,3.1,7.3,3.1c2.7,0,5.4-1.1,7.3-3.1l43.3-43.8  C449,397.1,449,390.7,445,386.7z M222.6,125.9c53.4,0,96.8,43.5,96.8,97c0,53.5-43.4,97-96.8,97c-53.4,0-96.8-43.5-96.8-97  C125.8,169.4,169.2,125.9,222.6,125.9z" /></svg>